<svg width="96" height="96" viewBox="0 0 96 96" fill="none" xmlns="http://www.w3.org/2000/svg">
<path fill-rule="evenodd" clip-rule="evenodd" d="M54.7763 70.8608C69.9754 70.8608 83.3633 63.1065 91.2 51.3383C84.9948 66.9756 70.2338 78.287 52.6939 79.4958V84.8089C52.6939 86.5339 51.2955 87.9324 49.5704 87.9324C47.8465 87.9324 46.4488 86.5358 46.4469 84.8123V91.0559C46.4469 92.7809 45.0484 94.1794 43.3234 94.1794C41.5983 94.1794 40.1999 92.781 40.1999 91.0559V78.6209C36.5443 77.8424 33.0538 76.6177 29.7881 75.0066V82.7265C29.7881 84.4516 28.3897 85.85 26.6646 85.85C24.9395 85.85 23.5411 84.4516 23.5411 82.7265V71.2631C12.1944 63.1415 4.8 49.8506 4.8 34.8327C4.8 22.0704 10.14 10.5554 18.7075 2.40002C13.8751 9.43412 11.047 17.9526 11.047 27.1315C11.047 51.2825 30.6253 70.8608 54.7763 70.8608Z" fill="#396B76"/>
<path d="M25.418 34.5469V60H20.1445V34.5469H25.418ZM33.9609 60H28.2656L37.0898 34.5469H43.875L52.6641 60H47.0039L45.1055 54.1289H35.8945L33.9609 60ZM37.2305 50.0156H43.7695L40.5703 40.2773H40.3945L37.2305 50.0156ZM76.7812 34.5469V60H72.2109L61.0312 43.8281H60.8203V60H55.5469V34.5469H60.1875L71.2969 50.7188H71.543V34.5469H76.7812Z" fill="white"/>
</svg>
